<svg xmlns="http://www.w3.org/2000/svg" viewBox="0 0 30 30"><defs><style>.cls-1{fill:none;}.cls-2{fill:#fff;}</style></defs><g id="Laag_2" data-name="Laag 2"><g id="Laag_1-2" data-name="Laag 1"><rect class="cls-1" width="30" height="30"/><path class="cls-2" d="M8.62,15.6a.8.8,0,0,1,.66-.88.77.77,0,0,1,.93.56c.17.61.3,1.23.44,1.85.29,1.29.58,2.58.86,3.87a2.87,2.87,0,0,1,.05.31.83.83,0,0,1-.61.94.85.85,0,0,1-1-.6c-.21-.83-.38-1.67-.57-2.5-.24-1.09-.49-2.18-.73-3.27C8.64,15.76,8.63,15.65,8.62,15.6Z"/><path class="cls-2" d="M18.43,21.26c.18-.79.37-1.68.57-2.57.23-1,.47-2.07.7-3.11a.31.31,0,0,1,0-.08c.15-.6.53-.89,1-.78s.73.52.59,1.14c-.16.78-.34,1.55-.51,2.33-.24,1.06-.47,2.12-.71,3.19a2.14,2.14,0,0,1-.09.34.89.89,0,0,1-1,.53A.88.88,0,0,1,18.43,21.26Z"/><path class="cls-2" d="M15.84,18.49c0,.89,0,1.77,0,2.66a1.51,1.51,0,0,1-.1.64.75.75,0,0,1-.87.46.76.76,0,0,1-.67-.76q0-3,0-6.06a.73.73,0,0,1,.79-.72.75.75,0,0,1,.83.73,8,8,0,0,1,0,1Z"/><path class="cls-2" d="M26,10.47h-.74c-.34,0-.67,0-1,0H23.4a.74.74,0,0,1-.52-.5c-.78-1.71-1.55-3.41-2.4-5.08a2.53,2.53,0,0,0-3.37-1.13,2.58,2.58,0,0,0-1.34,3.31c.3.8.7,1.56,1.05,2.33l.49,1.06H12.68c.49-1,1-2,1.41-3A2.71,2.71,0,0,0,14,4.72a2.48,2.48,0,0,0-2.23-1.21A2.54,2.54,0,0,0,9.38,5.1c-.77,1.66-1.56,3.3-2.31,5a.58.58,0,0,1-.43.39H4.1a2,2,0,0,0-.35,0h0a2.17,2.17,0,0,0-1.89,2.89C2.78,16.9,3.6,20.47,4.46,24a2.92,2.92,0,0,0,3.1,2.46H22.48a2.91,2.91,0,0,0,3.05-2.41l.69-2.83q1-4,1.94-8A2.08,2.08,0,0,0,26,10.47ZM17.8,5.28a.93.93,0,0,1,1.31.53c.6,1.26,1.18,2.53,1.78,3.8l.39.85H19.44a.52.52,0,0,1-.36-.23C18.5,9,17.94,7.81,17.38,6.59A.92.92,0,0,1,17.8,5.28ZM10.53,6.56a9.3,9.3,0,0,1,.41-.84.95.95,0,1,1,1.7.84c-.38.84-.78,1.68-1.18,2.52-.22.46-.35,1.08-.72,1.32a.23.23,0,0,1-.12.06H8.71Zm16,6.43q-1.29,5.34-2.59,10.69a1.31,1.31,0,0,1-1.48,1.15H7.57a1.32,1.32,0,0,1-1.49-1.15Q4.76,18.25,3.45,12.82c-.13-.52,0-.67.59-.67H25.86C26.6,12.15,26.69,12.26,26.51,13Z"/></g></g></svg>