<?xml version="1.0" encoding="utf-8"?>
<!-- Generator: Adobe Illustrator 24.1.0, SVG Export Plug-In . SVG Version: 6.00 Build 0)  -->
<svg version="1.1" id="Layer_1" xmlns="http://www.w3.org/2000/svg" xmlns:xlink="http://www.w3.org/1999/xlink" x="0px" y="0px"
	 viewBox="0 0 324.2 81.7" style="enable-background:new 0 0 324.2 81.7;" xml:space="preserve">
<g id="yvEWlN_1_">
	<g>
		<path fill="#ffffff" d="M324.2,55.9c-0.1,0.8-0.2,1.6-0.3,2.4c-1,6.2-3.9,11.2-8.5,15.3c-3.9,3.4-8.6,5.5-13.6,6.6c-4.1,1-8.3,1.4-12.5,1.4
			c-3.1,0-6.3-0.1-9.4-0.3c-4.7-0.3-9.3-1.2-13.7-3c-5.4-2.1-9.3-6-12.1-11c-2-3.5-3.2-7.3-3.8-11.4c-0.1-0.6-0.1-1.2-0.2-1.8
			c8.1-0.5,16-1,23.9-1.4c0.4,1.6,0.7,3.2,1.2,4.7c1.7,5,5.4,7.7,10.6,8.4c2.8,0.4,5.7,0.3,8.4-0.8c2.5-1,4.4-2.7,5.2-5.3
			c0.7-2.2,0.2-4.2-1.2-6c-1.2-1.6-2.8-2.5-4.6-3.2c-3.2-1.3-6.5-2-9.8-2.8c-5.7-1.3-11.4-2.8-16.7-5.3c-3.3-1.5-6.3-3.4-8.8-6.1
			c-2.9-3.1-4.7-6.8-5-11.1c-0.7-8.9,3-15.6,10.4-20.3c3.5-2.2,7.5-3.6,11.6-4.2c2.8-0.4,5.6-0.6,8.4-0.9c0.2,0,0.3-0.1,0.5-0.1
			c2.4,0,4.8,0,7.1,0c0.8,0.1,1.6,0.2,2.4,0.2c3.7,0.3,7.3,0.8,10.8,1.9c3.8,1.2,7.3,3,10.2,5.8c3.1,3.1,5,6.9,6.1,11.2
			c0.4,1.4,0.6,2.9,0.9,4.4c-8,0.5-16,0.9-23.9,1.3c-0.2-0.8-0.4-1.5-0.6-2.3c-1-3.3-2.9-5.8-6.2-7c-3.1-1.1-6.2-1.2-9.4-0.4
			c-1.9,0.4-3.4,1.4-4.4,3.1c-1.1,2.1-1,4.2,1,5.8c0.7,0.6,1.5,1,2.4,1.4c2.3,1,4.8,1.4,7.2,1.9c5.7,1.2,11.3,2.5,16.8,4.4
			c4.1,1.4,7.9,3.1,11.4,5.7c4.5,3.4,7.2,8,8.1,13.6c0.1,0.8,0.2,1.6,0.3,2.4C324.2,54.2,324.2,55.1,324.2,55.9z"/>
		<path fill="#ffffff" d="M34.6,80.3c0-26.3,0-52.6,0-79c0.2,0,0.4,0,0.6,0c12.7,0,25.4,0,38.1,0c4.9,0,9.8,0.5,14.5,2.1
			c7.9,2.6,13.7,7.8,17.4,15.2c1.9,3.7,3,7.6,3.7,11.7c1,5.2,1,10.5,0.7,15.8c-0.3,4.3-0.7,8.5-2.2,12.5c-2.9,7.9-8,14-15.6,17.9
			c-2.6,1.3-5.5,2-8.3,2.6c-4.4,0.9-8.8,1.3-13.2,1.3c-11.7-0.1-23.4,0-35,0C35.1,80.3,34.9,80.3,34.6,80.3z M59.9,62.4
			c2.8,0,5.5,0.1,8.3,0c1.9-0.1,3.9-0.3,5.8-0.6c2.7-0.4,5-1.6,6.7-3.8c0.8-1.1,1.5-2.2,2-3.4c1.3-2.9,1.6-6.1,1.7-9.2
			c0.1-2.7,0.1-5.3,0-8c-0.1-2.7-0.5-5.4-1.3-8.1c-1.2-4.2-3.7-7.1-7.8-8.6c-2.1-0.8-4.3-1.2-6.6-1.3c-2.8-0.1-5.6-0.1-8.4-0.1
			c-0.1,0-0.3,0-0.4,0C59.9,33.7,59.9,48,59.9,62.4z"/>
		<path fill="#ffffff" d="M248.7,1.4c0,5.6,0,11.2,0,16.8c-14.1,0-28.2,0-42.3,0c0,4.2,0,8.3,0,12.6c13.1,0,26.1,0,39.2,0c0,5.4,0,10.7,0,16.1
			c-13.1,0-26.1,0-39.2,0c0,5.2,0,10.3,0,15.6c14.5,0,29,0,43.5,0c0,6,0,11.9,0,17.9c-23,0-45.9,0-68.9,0c0-26.3,0-52.6,0-78.9
			C203.5,1.4,226.1,1.4,248.7,1.4z"/>
		<path fill="#ffffff" d="M114,80.3c0-26.3,0-52.6,0-78.9c8.4,0,16.8,0,25.3,0c0,19.8,0,39.6,0,59.5c13.2,0,26.3,0,39.4,0c0,6.5,0,12.9,0,19.4
			C157.2,80.3,135.6,80.3,114,80.3z"/>
		<path fill="#ffffff" d="M25.2,80.3c-8.4,0-16.8,0-25.2,0C0,54,0,27.7,0,1.4c8.4,0,16.8,0,25.2,0C25.2,27.7,25.2,54,25.2,80.3z"/>
	</g>
</g>
</svg>
