<svg xmlns="http://www.w3.org/2000/svg" viewBox="0 0 56.69 56.69"><defs><style>.cls-1{fill:none;}.cls-2{fill:#fff;}</style></defs><g id="Laag_2" data-name="Laag 2"><g id="Laag_1-2" data-name="Laag 1"><rect class="cls-1" width="56.69" height="56.69"/><path class="cls-2" d="M27.57,56.39c-4.57,0-9.15.2-13.7,0A13.82,13.82,0,0,1,1.32,46.18,36,36,0,0,1,0,37.38C0,29.76,0,22.13.42,14.53A14.36,14.36,0,0,1,13.85.7C21,.08,28.16.22,35.32.14a49.7,49.7,0,0,1,7.52.43C51,1.72,56,6.39,56.41,14.67a287.31,287.31,0,0,1-.2,29.2c-.34,6.6-6.22,11.8-12.8,12.47-.79.07-1.57.2-2.36.21-4.49,0-9,0-13.48,0Zm-22-27.87h0c0,4.24-.12,8.49,0,12.73.19,5.76,3.34,9.64,9,9.89,9.27.41,18.58.38,27.85,0a9.14,9.14,0,0,0,8.89-9.1c.25-8.95.28-17.92,0-26.86-.21-6-3.66-9.28-9.67-9.45q-13.21-.39-26.45,0c-6,.18-9.37,3.8-9.6,9.78C5.44,19.87,5.57,24.2,5.57,28.52Z"/><path class="cls-2" d="M43.06,28.48a14.6,14.6,0,1,1-14.52-14.6A14.54,14.54,0,0,1,43.06,28.48Zm-5.23.12a9.37,9.37,0,1,0-18.73-.12,9.37,9.37,0,0,0,18.73.12Z"/><path class="cls-2" d="M47,13.34a3.29,3.29,0,0,1-3.42,3.38,3.49,3.49,0,0,1-3.38-3.49A3.44,3.44,0,0,1,43.83,10,3.16,3.16,0,0,1,47,13.34Z"/></g></g></svg>