<svg xmlns="http://www.w3.org/2000/svg" viewBox="0 0 56.69 56.69"><defs><style>.cls-1{fill:none;}.cls-2{fill:#fff;}</style></defs><g id="Laag_2" data-name="Laag 2"><g id="Laag_1-2" data-name="Laag 1"><rect class="cls-1" width="56.69" height="56.69"/><path class="cls-2" d="M47.2,37.89V13.39l-8.8,2.38c-4.61,1.24-9.19,2.57-13.83,3.67-1.67.4-2.09,1.12-2.06,2.76.16,8.49.09,17,.33,25.47.1,3.62-.83,6.47-4.23,8a9.44,9.44,0,0,1-10.5-1.43C4.82,51.57,5.6,46,9.46,43.73c3.12-1.86,6.35-1.62,9.73-.27,0-6,0-11.8,0-17.59,0-5.24-.06-10.48,0-15.71,0-.79.71-2.08,1.33-2.25C30.29,5.19,40.06,2.61,49.81,0a2.47,2.47,0,0,1,.65,0,16.45,16.45,0,0,1,.18,1.75q0,20.48,0,41c0,3.64-1.57,6.3-5,7.64A9,9,0,0,1,36.05,49a6.36,6.36,0,0,1-2-7.3,8.22,8.22,0,0,1,7.59-4.84A41.36,41.36,0,0,1,47.2,37.89Z"/></g></g></svg>