<svg xmlns="http://www.w3.org/2000/svg" viewBox="0 0 30 30"><defs><style>.cls-1{fill:none;}.cls-2{fill:#fff;}</style></defs><g id="Laag_2" data-name="Laag 2"><g id="Laag_1-2" data-name="Laag 1"><rect class="cls-1" width="30" height="30"/><path class="cls-2" d="M15,26.5a22.19,22.19,0,0,1-8.42-1.9,1.89,1.89,0,0,1-1.27-1.89,10,10,0,0,1,.2-2.88,2.89,2.89,0,0,1,2.06-2.15A14.11,14.11,0,0,0,11.29,16a1,1,0,0,1,.5-.16.6.6,0,0,1,.58.46.58.58,0,0,1-.29.72c-.94.5-1.88,1-2.83,1.47a5.1,5.1,0,0,1-1.08.37,1.86,1.86,0,0,0-1.53,1.8c-.07.73,0,1.47,0,2.21a.5.5,0,0,0,.35.51,16.4,16.4,0,0,0,4.36,1.43,18.93,18.93,0,0,0,10.86-1.05c1.46-.61,1.14-.24,1.23-1.8a7.08,7.08,0,0,0-.11-1.52,1.81,1.81,0,0,0-1.46-1.57A14,14,0,0,1,18,17a.63.63,0,0,1-.35-.73c.11-.46.57-.59,1-.35,1,.5,2,1,3,1.46a4.09,4.09,0,0,0,.79.27,2.85,2.85,0,0,1,2.09,2.2,9.31,9.31,0,0,1,.12,3.45,1.27,1.27,0,0,1-.76,1.05A16.72,16.72,0,0,1,19,26C17.67,26.23,16.33,26.34,15,26.5Z"/><path class="cls-2" d="M10.06,9.07a8,8,0,0,1,.56-2.94,4.28,4.28,0,0,1,3.31-2.52A4.93,4.93,0,0,1,18.61,5a4.51,4.51,0,0,1,1.15,2.44,10.5,10.5,0,0,1-.35,5.16,4.3,4.3,0,0,1-3.11,3.06,4.4,4.4,0,0,1-4.67-1.25,5.92,5.92,0,0,1-1-1.79A8.72,8.72,0,0,1,10.06,9.07Zm1.26.48c0,.25,0,.67.09,1.09a10.31,10.31,0,0,0,.25,1.23,3.39,3.39,0,0,0,6.65,0A9,9,0,0,0,18.55,8a3.55,3.55,0,0,0-1.13-2.35,3.76,3.76,0,0,0-3.17-.77,3,3,0,0,0-2.46,1.8A7,7,0,0,0,11.32,9.55Z"/></g></g></svg>