<svg xmlns="http://www.w3.org/2000/svg" viewBox="0 0 56.69 56.69"><defs><style>.cls-1{fill:none;}.cls-2{fill:#fefefe;}</style></defs><g id="Laag_2" data-name="Laag 2"><g id="Laag_1-2" data-name="Laag 1"><rect class="cls-1" width="56.69" height="56.69"/><path class="cls-2" d="M22.37,9.57a77.36,77.36,0,0,1,20.8,2.89,50.15,50.15,0,0,1,11.61,4.88,3.62,3.62,0,0,1,1.91,3,3.72,3.72,0,0,1-5.59,3.44,42.19,42.19,0,0,0-6.38-3A58.9,58.9,0,0,0,33.79,18,74.48,74.48,0,0,0,19.49,17,59,59,0,0,0,5.94,18.88l-1.16.32a3.72,3.72,0,1,1-2.1-7.14,48.07,48.07,0,0,1,6.49-1.5A76.48,76.48,0,0,1,22.37,9.57Z"/><path class="cls-2" d="M21.62,23.27a58.66,58.66,0,0,1,21,4.07,45.15,45.15,0,0,1,6.93,3.44,3.11,3.11,0,0,1-1.92,5.78,3.05,3.05,0,0,1-1.21-.41A44.73,44.73,0,0,0,32.2,30.69a55.47,55.47,0,0,0-14-1.13A48.35,48.35,0,0,0,6.66,31.48a3.06,3.06,0,0,1-3.49-1.32,3.1,3.1,0,0,1,1.75-4.63A48.65,48.65,0,0,1,11.68,24,61.6,61.6,0,0,1,21.62,23.27Z"/><path class="cls-2" d="M43.67,47.13a2.4,2.4,0,0,1-1.31-.37A37.5,37.5,0,0,0,28,41.7a49.81,49.81,0,0,0-11.38-.25,69.5,69.5,0,0,0-9.19,1.47A2.48,2.48,0,1,1,6.27,38.1a65.34,65.34,0,0,1,7.06-1.29,60.66,60.66,0,0,1,8.93-.54,46.47,46.47,0,0,1,16.08,3A39.83,39.83,0,0,1,45,42.53a2.45,2.45,0,0,1,1.1,2.8A2.48,2.48,0,0,1,43.67,47.13Z"/></g></g></svg>