<svg xmlns="http://www.w3.org/2000/svg" viewBox="0 0 56.69 56.69"><defs><style>.cls-1{fill:none;}.cls-2{fill:#fff;}</style></defs><g id="Laag_2" data-name="Laag 2"><g id="Laag_1-2" data-name="Laag 1"><rect class="cls-1" width="56.69" height="56.69"/><path class="cls-2" d="M1.5,21.53l4.88,1.32C.5,16-.29,12,3.21,7.17A35.33,35.33,0,0,0,27.47,19.32c-.2-4.13.4-7.75,3.24-10.72C34.78,4.36,41.31,3.44,46,7c2,1.52,3.6,1.34,5.54.6,1.29-.49,2.55-1,3.83-1.55l.56.53-4.72,5.62,5.14-1.36.38.34c-1.25,1.34-2.61,2.61-3.72,4.06a7.3,7.3,0,0,0-1.68,3.44C50.08,33.83,43,44.84,28.39,50,18.71,53.41,9.19,52.11.25,47c-.1,0-.12-.26-.25-.57a25,25,0,0,0,16.41-4.6c-6.64-1.93-8.8-3.67-10.51-8.44h4C5,30.93,1.67,27.56,1.5,21.53Z"/></g></g></svg>