<svg xmlns="http://www.w3.org/2000/svg" viewBox="0 0 56.69 56.69"><defs><style>.cls-1{fill:none;}.cls-2{fill:#fff;}</style></defs><g id="Laag_2" data-name="Laag 2"><g id="Laag_1-2" data-name="Laag 1"><rect class="cls-1" width="56.69" height="56.69"/><path class="cls-2" d="M27.56,47.7c-6.37,0-12.74.14-19.1,0C3.94,47.52,1.7,45.43,1,41A80.13,80.13,0,0,1,.83,16.83C1.67,11.2,4.17,9,9.86,9q18.39-.12,36.79,0c5.93,0,8.59,2.31,9.3,8.13,1,8.2,1.17,16.43-.63,24.57-.9,4-2.7,5.82-6.78,6-7,.24-14,.07-21,.07ZM22.71,20.57V36L37.25,28.1Z"/></g></g></svg>